<?xml version="1.0" encoding="UTF-8"?><svg id="a" xmlns="http://www.w3.org/2000/svg" viewBox="0 0 422.69 422.69"><defs><style>.b{fill:#009245;}.b,.c,.d{stroke-width:0px;}.c{fill:#ffffed;}.d{fill:#006837;}</style></defs><circle class="c" cx="211.34" cy="211.34" r="208.19"/><path class="b" d="M406.08,211.34c0,107.55-87.16,194.75-194.71,194.75-54.95,0-104.61-22.75-140.01-59.37h129.08v-76.48c-12.74,37.13-26.66,65.34-67.27,65.34h-43.35v-155.27h20.69c21.86,0,31.03,7.82,37.42,19.34v-50.12c-7.99,14.46-20.69,19.3-37.42,19.3h-20.69v-80.98h27.08c25.44,0,52.51,23,66.81,65.38v-77.28h-112.34c35.4-36.62,85.06-59.37,140.01-59.37s104.57,22.75,139.97,59.37h-160.02v77.28c14.34-42.38,41.41-65.38,67.23-65.38h5.59c.38,1.09.38,2.56.38,3.7v228.05c0,10.39-7.95,21.19-20.69,27.12h91.11c-12.32-5.93-20.69-16.73-20.69-27.12V91.56c0-1.14,0-2.61.38-3.7h5.97c25.48,0,52.51,23,67.27,65.38v-24.22c11.69,25.02,18.21,52.89,18.21,82.32Z"/><path class="d" d="M211.37,410.3c-54.43,0-105.22-21.54-143.03-60.65l-6.89-7.13h134.78v-49.38c-11.48,26.34-28,46.64-63.07,46.64h-47.55v-163.68h24.89c16.86,0,26.74,4.68,33.22,10.9v-25.06c-7.95,7.53-18.78,11.1-33.22,11.1h-24.89v-89.39h31.28c24.13,0,47.41,18.52,62.6,48.58v-52.07H61.44l6.89-7.13C106.14,33.93,156.94,12.39,211.37,12.39s105.19,21.54,142.99,60.65l6.89,7.13h-165.73v52.13c15.26-30.11,38.7-48.65,63.02-48.65h8.59l.98,2.83c.61,1.76.61,3.67.61,5.07v228.05c0,8.25-4.11,16.44-11.08,22.92h63.63c-7.06-6.54-11.23-14.75-11.23-22.92V91.56c0-1.4,0-3.32.62-5.09l.99-2.82h8.96c24.49,0,47.59,18.27,63.07,48.85v-22.42l8.01,17.16c12.34,26.43,18.6,54.72,18.6,84.1,0,54.27-21.84,103.53-57.18,139.46l.26.13h-.39c-36.1,36.63-86.25,59.37-141.61,59.37ZM81.64,350.94c35.33,32.94,81.01,50.96,129.73,50.96s95.53-19.35,129.55-50.96h-116.09l17.23-8.01c10.92-5.08,18.26-14.45,18.26-23.31V92.06h-1.77c-25.57,0-50.4,24.54-63.25,62.52l-7.39,21.84v2.43l-.41-1.22-.39,1.15v-2.29l-7.39-21.91c-12.81-37.98-37.47-62.52-62.82-62.52h-22.87v72.57h16.48c16.79,0,27.2-5.28,33.74-17.13l7.89-14.28v82.68l-7.88-14.21c-5.72-10.31-13.65-17.18-33.74-17.18h-16.48v146.86h39.14c35.38,0,49.07-21.05,63.3-62.5l8.18-23.85v105.9h-123ZM318.45,92.06v227.55c0,8.68,7.36,18.06,18.3,23.33l8.32,4.01c35.04-34.58,56.79-82.6,56.79-135.6,0-20.85-3.29-41.12-9.8-60.52v27.27l-8.18-23.47c-13.24-38-38.08-62.56-63.3-62.56h-2.15ZM187.11,71.76h153.95c-35.32-32.94-80.99-50.96-129.69-50.96s-94.41,18.02-129.73,50.96h105.47Z"/><path class="b" d="M40.12,118.51v185.67c-15.01-27.62-23.5-59.24-23.5-92.84s8.49-65.21,23.5-92.84Z"/><path class="d" d="M44.32,320.73l-7.9-14.54c-15.71-28.91-24.01-61.71-24.01-94.84s8.3-65.93,24.01-94.84l7.9-14.54v218.76ZM35.91,136.91c-9.91,23.41-15.09,48.81-15.09,74.44s5.18,51.03,15.09,74.44v-148.87Z"/><path class="c" d="M133.16,335.59h-43.35v-155.27h20.69c21.86,0,31.03,7.82,37.42,19.34v-50.12c-7.99,14.46-20.69,19.3-37.42,19.3h-20.69v-80.98h27.08c25.44,0,52.51,23,66.81,65.38v-77.28H51.9c-10.38,14.92-11.79,17.07-11.79,27.46v216.57c0,10.43,6.53,18.71,12.51,26.74h147.81v-76.48c-12.74,37.13-26.66,65.34-67.27,65.34Z"/><path class="c" d="M201.48,347.78H52.1l-1.07-1.44c-5.88-7.88-11.96-16.02-11.96-26.36V103.42c0-10.84,1.6-13.13,11.98-28.05l.31-.45h133.4v84.74l-2.05-6.07c-13.25-39.28-39.08-64.67-65.81-64.67h-26.03v78.88h19.63c18.08,0,29.34-5.79,36.5-18.76l1.97-3.57v58.26l-1.97-3.55c-5.42-9.76-13.59-18.8-36.5-18.8h-19.63v153.17h42.3c40.78,0,54.15-29.27,66.28-64.63l2.04-5.96v83.84ZM53.15,345.68h146.23v-69.23c-11.93,33.46-26.35,60.19-66.22,60.19h-44.4v-157.37h21.74c21.41,0,30.57,7.61,36.37,16.58v-42.54c-7.61,11.44-19,16.59-36.37,16.59h-21.74v-83.08h28.13c26.32,0,51.69,23.5,65.76,60.39v-70.19H52.45c-9.99,14.37-11.29,16.33-11.29,26.4v216.57c0,9.64,5.87,17.5,11.54,25.1l.44.59Z"/><path class="c" d="M191.31,75.96v77.28c14.34-42.38,41.41-65.38,67.23-65.38h5.59c.38,1.09.38,2.56.38,3.7v228.05c0,10.39-7.95,21.19-20.69,27.12h91.11c-12.32-5.93-20.69-16.73-20.69-27.12V91.56c0-1.14,0-2.61.38-3.7h5.97c25.48,0,52.51,23,67.27,65.38v-52.64l-18.36-24.64h-178.2Z"/><path class="c" d="M339.54,347.78h-100.47l4.31-2c12.2-5.67,20.08-15.95,20.08-26.17V91.56c0-.79,0-1.8-.14-2.65h-4.78c-26.94,0-52.94,25.38-66.23,64.67l-2.05,6.05v-84.72h179.78l18.89,25.34v59.2l-2.04-5.87c-13.68-39.29-39.7-64.68-66.28-64.68h-5.15c-.15.85-.15,1.86-.15,2.65v228.05c0,9.87,8.07,20.39,20.09,26.17l4.15,2ZM248.1,345.68h82.67c-10.66-6.39-17.57-16.48-17.57-26.07V91.56c0-1.18,0-2.79.44-4.05l.25-.7h6.72c26.2,0,51.78,23.57,66.22,60.55v-46.41l-17.84-23.94h-176.62v70.21c14.11-36.9,39.65-60.41,66.18-60.41h6.34l.25.71c.44,1.26.44,2.8.44,4.04v228.05c0,9.9-6.73,19.79-17.46,26.07Z"/><path class="d" d="M211.34,422.69C94.81,422.69,0,327.88,0,211.34S94.81,0,211.34,0s211.35,94.81,211.35,211.34-94.81,211.35-211.35,211.35ZM211.34,6.31C98.29,6.31,6.31,98.29,6.31,211.34s91.98,205.04,205.04,205.04,205.04-91.98,205.04-205.04S324.4,6.31,211.34,6.31Z"/></svg>